<svg width="48" height="48" viewBox="0 0 48 48" fill="none" xmlns="http://www.w3.org/2000/svg">
<circle cx="24" cy="24" r="24" fill="#23221F"/>
<path d="M31.1209 17.1977C31.1209 17.1977 32.8208 16.5349 32.6791 18.1446C32.6319 18.8074 32.2069 21.1272 31.8764 23.6365L30.7432 31.0695C30.7432 31.0695 30.6488 32.1583 29.7989 32.3477C28.9489 32.5371 27.6741 31.6849 27.438 31.4955C27.2491 31.3535 23.8967 29.223 22.7163 28.1815C22.3857 27.8974 22.008 27.3293 22.7635 26.6665L27.7213 21.9321C28.2879 21.364 28.8545 20.0383 26.4936 21.648L19.8832 26.1457C19.8832 26.1457 19.1278 26.6191 17.7113 26.193L14.6421 25.2462C14.6421 25.2462 13.5089 24.536 15.4448 23.8258C20.1666 21.6006 25.9743 19.3281 31.1209 17.1977Z" fill="#F0E3CA"/>
</svg>
