<svg width="48" height="48" viewBox="0 0 48 48" fill="none" xmlns="http://www.w3.org/2000/svg">
<circle cx="24" cy="24" r="24" fill="#23221F"/>
<g clip-path="url(#clip0_2650_110)">
<path d="M30.64 19.985C28.12 16.1 22.975 14.945 18.985 17.36C15.1 19.775 13.84 25.025 16.36 28.91L16.57 29.225L15.73 32.375L18.88 31.535L19.195 31.745C20.56 32.48 22.03 32.9 23.5 32.9C25.075 32.9 26.65 32.48 28.015 31.64C31.9 29.12 33.055 23.975 30.64 19.985ZM28.435 28.07C28.015 28.7 27.49 29.12 26.755 29.225C26.335 29.225 25.81 29.435 23.71 28.595C21.925 27.755 20.455 26.39 19.405 24.815C18.775 24.08 18.46 23.135 18.355 22.19C18.355 21.35 18.67 20.615 19.195 20.09C19.405 19.88 19.615 19.775 19.825 19.775H20.35C20.56 19.775 20.77 19.775 20.875 20.195C21.085 20.72 21.61 21.98 21.61 22.085C21.715 22.19 21.715 22.4 21.61 22.505C21.715 22.715 21.61 22.925 21.505 23.03C21.4 23.135 21.295 23.345 21.19 23.45C20.98 23.555 20.875 23.765 20.98 23.975C21.4 24.605 21.925 25.235 22.45 25.76C23.08 26.285 23.71 26.705 24.445 27.02C24.655 27.125 24.865 27.125 24.97 26.915C25.075 26.705 25.6 26.18 25.81 25.97C26.02 25.76 26.125 25.76 26.335 25.865L28.015 26.705C28.225 26.81 28.435 26.915 28.54 27.02C28.645 27.335 28.645 27.755 28.435 28.07Z" fill="#F0E3CA"/>
</g>
<defs>
<clipPath id="clip0_2650_110">
<rect width="21" height="21" fill="white" transform="translate(13 14)"/>
</clipPath>
</defs>
</svg>
