<svg width="48" height="48" viewBox="0 0 48 48" fill="none" xmlns="http://www.w3.org/2000/svg">
<circle cx="24" cy="24" r="24" fill="#23221F"/>
<path d="M33.524 19.061C33.2877 19.8039 32.9692 20.4505 32.5702 21.0377L32.5869 21.0114C32.1949 21.6647 31.7267 22.4196 31.1825 23.2759C30.7158 23.952 30.4688 24.302 30.4414 24.3259C30.3206 24.4773 30.2366 24.6628 30.2078 24.8667L30.2069 24.8728C30.2305 25.0583 30.3162 25.2202 30.4414 25.3409L30.7914 25.7312C32.6639 27.6556 33.7171 28.9821 33.951 29.7107C33.9816 29.7912 33.9991 29.8839 33.9991 29.981C33.9991 30.1508 33.9449 30.3074 33.853 30.436L33.8547 30.4334C33.7007 30.5918 33.4855 30.6898 33.2475 30.6898C33.2212 30.6898 33.1941 30.6889 33.1687 30.6863H33.1723H30.8701C30.8692 30.6863 30.8675 30.6863 30.8657 30.6863C30.5709 30.6863 30.2996 30.583 30.087 30.4115L30.0896 30.4133C29.7799 30.1587 29.5042 29.883 29.2575 29.5838L29.2496 29.5733C28.8465 29.1177 28.489 28.7342 28.1769 28.4227C27.1374 27.4345 26.3703 26.9404 25.8756 26.9404C25.8572 26.9387 25.8362 26.9378 25.8144 26.9378C25.67 26.9378 25.5352 26.9824 25.4241 27.0585L25.4267 27.0568C25.3357 27.1705 25.2806 27.3175 25.2806 27.4759C25.2806 27.5074 25.2824 27.5372 25.2867 27.5678V27.5643C25.2631 27.839 25.2491 28.1584 25.2491 28.4813C25.2491 28.5854 25.2509 28.6887 25.2535 28.7919V28.777V29.7912C25.2622 29.8323 25.2675 29.8795 25.2675 29.9277C25.2675 30.1394 25.1712 30.3284 25.0207 30.4535L25.0199 30.4544C24.6812 30.6093 24.2857 30.7003 23.8684 30.7003C23.7791 30.7003 23.6916 30.6959 23.605 30.688L23.6164 30.6889C22.2391 30.6627 20.9616 30.2593 19.8757 29.5794L19.9064 29.5969C18.5842 28.7937 17.4887 27.748 16.654 26.5125L16.6304 26.4758C15.8376 25.424 15.0982 24.2358 14.4682 22.9828L14.407 22.848C14.0386 22.1463 13.6571 21.2835 13.3281 20.3963L13.2756 20.2344C13.1417 19.8354 13.0446 19.3717 13.0044 18.8913L13.0026 18.8694C13.0026 18.4272 13.2628 18.2062 13.7831 18.2062H16.0844C16.1054 18.2044 16.1299 18.2035 16.1552 18.2035C16.3722 18.2035 16.5726 18.2779 16.731 18.403L16.7292 18.4013C16.9042 18.5929 17.0337 18.8283 17.0976 19.0908L17.1002 19.1013C17.5237 20.2974 17.9726 21.3019 18.4889 22.2644L18.4302 22.1445C18.852 22.9933 19.3184 23.7239 19.8504 24.3985L19.8302 24.3714C20.2969 24.9442 20.6609 25.2307 20.9222 25.2307C20.9301 25.2315 20.9397 25.2315 20.9502 25.2315C21.0798 25.2315 21.1926 25.1615 21.2539 25.0565L21.2547 25.0548C21.3195 24.8885 21.3571 24.6952 21.3571 24.4939C21.3571 24.451 21.3554 24.4082 21.3519 24.3662V24.3714V20.9773C21.3335 20.5774 21.2355 20.2038 21.0719 19.8687L21.0789 19.8853C20.9704 19.6543 20.84 19.4548 20.6851 19.2772L20.6877 19.2807C20.5442 19.1372 20.4462 18.949 20.4156 18.739L20.4147 18.7338C20.4147 18.585 20.483 18.4512 20.5897 18.3637L20.5906 18.3628C20.6965 18.2657 20.8382 18.207 20.9931 18.207H21.0001H24.6279C24.6471 18.2044 24.669 18.2035 24.6917 18.2035C24.8624 18.2035 25.0155 18.2805 25.117 18.4013L25.1179 18.4022C25.208 18.5667 25.2614 18.7635 25.2614 18.9718C25.2614 19.005 25.2596 19.0374 25.257 19.0698V19.0654V23.5918C25.2552 23.6128 25.2544 23.6373 25.2544 23.6618C25.2544 23.8228 25.299 23.9742 25.376 24.1028L25.3742 24.0993C25.4381 24.1938 25.5449 24.255 25.6656 24.255H25.6665C25.8205 24.2445 25.9605 24.1938 26.0786 24.1133L26.076 24.115C26.314 23.9514 26.5187 23.765 26.6964 23.5542L26.6999 23.5498C27.231 22.9495 27.721 22.2863 28.148 21.581L28.1821 21.5198C28.4831 21.021 28.8086 20.4068 29.1035 19.7759L29.1577 19.6473L29.548 18.8668C29.6836 18.4765 30.0476 18.2018 30.4755 18.2018C30.4921 18.2018 30.5087 18.2018 30.5254 18.2027H30.5227H32.8249C33.4467 18.2027 33.68 18.4888 33.5249 19.061H33.524Z" fill="#F0E3CA"/>
</svg>
